# xmcd CD database file
#
# Track frame offsets:
#	150
#	11172
#	40197
#	59390
#	72247
#	90512
#	105910
#	118437
#	132162
#	145332
#	169920
#	181282
#
# Disc length: 2699 seconds
#
# Revision: 3
# Processed by: cddbd v1.5.1PL0 Copyright (c) Steve Scherf et al.
# Submitted via: CDex 1.51
#
DISCID=a70a890c
DTITLE=The Dubliners - Celtic Collections
DYEAR=1996
DGENRE=Celtic
TTITLE0=Monto
TTITLE1=The Town I Loved So Well
TTITLE2=Ragalan Road
TTITLE3=The Wild Rover
TTITLE4=Spring Hill Disaster
TTITLE5=Seven Drunken Nights
TTITLE6=Whiskey In The Jar
TTITLE7=Dirty Old Town
TTITLE8=The Ould Triangle
TTITLE9=Dublin In The Rare Ould Times
TTITLE10=Finnegan's Wake
TTITLE11=Song For Ireland
EXTD=YEAR: 1996
EXTT0=
EXTT1=
EXTT2=
EXTT3=
EXTT4=
EXTT5=
EXTT6=
EXTT7=
EXTT8=
EXTT9=
EXTT10=
EXTT11=
PLAYORDER=
